<svg width="41" height="41" xmlns="http://www.w3.org/2000/svg" xmlns:xlink="http://www.w3.org/1999/xlink" overflow="hidden"><defs><clipPath id="clip0"><rect x="168" y="183" width="41" height="41"/></clipPath></defs><g clip-path="url(#clip0)" transform="translate(-168 -183)"><path d="M206.694 217.167 189.995 188.125C189.354 186.972 187.689 186.972 187.048 188.125L170.306 217.167C169.666 218.32 170.477 219.729 171.801 219.729L188.5 219.729 205.199 219.729C206.523 219.729 207.334 218.32 206.694 217.167ZM187.219 194.958 189.781 194.958 189.781 209.906 187.219 209.906 187.219 194.958ZM188.5 215.885C187.304 215.885 186.365 214.946 186.365 213.75 186.365 212.554 187.304 211.615 188.5 211.615 189.696 211.615 190.635 212.554 190.635 213.75 190.635 214.946 189.696 215.885 188.5 215.885Z" fill="#069DD8"/></g></svg>