<svg xmlns="http://www.w3.org/2000/svg" xmlns:xlink="http://www.w3.org/1999/xlink" version="1.1" id="Layer_1" x="0px" y="0px" viewBox="0 0 841.9 425.2" style="enable-background:new 0 0 841.9 425.2;" xml:space="preserve" preserveAspectRatio="xMinYMid meet">
<style type="text/css">
	.st0{clip-path:url(#SVGID_00000020385577176513429050000012362394982412999343_);}
	.st1{fill:#FFFFFF;}
	.st2{clip-path:url(#SVGID_00000078025793337499554540000018224824910618952091_);}
</style>
<g>
	<g>
		<defs>
			<rect id="SVGID_1_" y="0" width="841.9" height="425.2"></rect>
		</defs>
		<clipPath id="SVGID_00000026143814951493406600000016759327427350126725_">
			<use xlink:href="#SVGID_1_" style="overflow:visible;"></use>
		</clipPath>
		<g style="clip-path:url(#SVGID_00000026143814951493406600000016759327427350126725_);">
			<path class="st1" d="M614.6,167.7c-9.8-14.4-15.1-31.4-15.1-49c0-25.8,11.3-50,31.1-66.6c14-11.8,31.5-18.8,49.8-20     c-16.2,5.2-30.4,14.8-41.5,28c-17.6,14.8-28.9,35.5-31.8,58.3c-0.5,3.8-0.7,7.6-0.7,11.4C606.3,142.9,609.1,155.8,614.6,167.7"></path>
			<path class="st1" d="M784,101.6c-5.2-16.2-14.8-30.4-28-41.5c-14.8-17.6-35.5-28.9-58.3-31.8c-3.8-0.5-7.6-0.7-11.4-0.7     c-13.1,0-26,2.8-37.9,8.3c14.3-9.8,31.4-15.1,49-15.1c25.8,0,50,11.3,66.6,31.1C775.7,65.9,782.7,83.4,784,101.6"></path>
			<path class="st1" d="M714.4,205.3c16.1-5.2,30.4-14.8,41.5-28c17.7-14.9,28.9-35.6,31.8-58.3c0.5-3.8,0.7-7.6,0.7-11.4     c0-13.1-2.8-26-8.3-37.9c9.8,14.3,15.1,31.4,15.1,49c0,25.8-11.3,50-31.1,66.6C750.1,197,732.7,204,714.4,205.3"></path>
			<path class="st1" d="M697.3,216.6c-25.8,0-50-11.3-66.6-31.1c-11.8-14.1-18.8-31.5-20-49.8c5.2,16.1,14.8,30.4,28,41.5     c14.8,17.6,35.5,28.9,58.3,31.8c3.8,0.5,7.6,0.7,11.4,0.7c13.1,0,26-2.8,37.9-8.3C732,211.3,715,216.6,697.3,216.6"></path>
			<path class="st1" d="M659.4,47c11.3-7.8,24.2-12.7,38-14.5c13.8,1.8,26.7,6.7,38,14.5c-11.9-5.5-24.8-8.3-38-8.3     S671.3,41.6,659.4,47"></path>
			<path class="st1" d="M625.7,156.6c-7.8-11.3-12.7-24.2-14.5-38c1.8-13.7,6.7-26.7,14.5-38c-5.5,11.9-8.3,24.8-8.3,38     S620.3,144.7,625.7,156.6"></path>
			<path class="st1" d="M769,156.6c5.5-11.9,8.3-24.8,8.3-38s-2.8-26.1-8.3-38c7.8,11.3,12.7,24.2,14.5,38     C781.7,132.4,776.7,145.3,769,156.6"></path>
			<path class="st1" d="M697.3,204.8c-13.8-1.8-26.7-6.7-38-14.5c11.9,5.4,24.8,8.3,38,8.3s26.1-2.8,38-8.3     C724,198.1,711.1,203,697.3,204.8"></path>
			<path class="st1" d="M652.5,209c10.1,5.7,21.3,9.5,32.8,11l-42.2,10.2L652.5,209L652.5,209z"></path>
		</g>
	</g>
</g>
<polygon class="st1" points="179.9,338.2 200.9,202.5 237.7,202.5 216.7,338.2 "></polygon>
<g>
	<g>
		<defs>
			<rect id="SVGID_00000142146744361628592220000009476102103543387575_" y="0" width="841.9" height="425.2"></rect>
		</defs>
		<clipPath id="SVGID_00000160190269077582254340000000842973230974567580_">
			<use xlink:href="#SVGID_00000142146744361628592220000009476102103543387575_" style="overflow:visible;"></use>
		</clipPath>
		<g style="clip-path:url(#SVGID_00000160190269077582254340000000842973230974567580_);">
			<path class="st1" d="M641.1,205.1h-31.3c-5.8,0-8.7,4.7-11.4,10.5l-34.5,82.3l-13.8-92.4h-27.2c-5.8,0-9.7,2.1-8.7,7.9     l21.3,123.4c1,11.3,1.3,19,0.6,20.4c-1.3,2.7-3,5.3-4.7,7.7c-6.3,8.7-15.2,11.6-25.1,7.6c-3-1.2-8.8-5.1-8.8-5.1L485,393.1     c0.6,0.6,0.9,1.3,1.6,1.9c2.8,2.4,6,4.8,9.4,5.9c23.9,7.7,47.7,4,62.7-20.2c2.2-3.5,4.4-7.1,6.2-10.9c7-14.6,13.6-29.2,20.1-43.9     L641.1,205.1L641.1,205.1z"></path>
			<path class="st1" d="M461.5,205.3c-14.5,15.4-25.7,32.9-39.6,48.5l17.2-108.9c0.9-5.8-3-10.5-8.9-10.5H403l-32.3,203.9h37.8     l10.2-64.6c7.8,15.2,24.6,47.1,34,65h45c-7.5-10.3-30.1-56.6-36.8-67.9c-3.5-5.9-2.5-9.4,2-14.1c14-14.8,28-35.7,42.2-51.4     L461.5,205.3L461.5,205.3z"></path>
			<path class="st1" d="M223.9,183.6c10.8,0,19.6-8.8,19.6-19.6s-8.8-19.6-19.6-19.6s-19.6,8.8-19.6,19.6S213.1,183.6,223.9,183.6"></path>
			<path class="st1" d="M368.1,146.9c-0.6-0.4-1-0.9-1.7-1.2c-23.7-13.4-48.5-14.7-73.6-5.9c-29.7,10.5-43.6,37.1-36.5,67.7     c4.2,18.3,17.3,29.4,32,38.9c8.6,5.6,17.8,10.5,26,16.6c11.2,8.4,14.6,19.3,10.9,30.2c-3.6,10.7-13.7,16.9-27.3,17.3     c-17.4,0.5-31.8-6.2-44.6-17.4l-15,33.2c3.7,4.3,9,7.3,14.3,10.1c0.2,0.1,0.5,0.2,0.7,0.2c25.6,9.9,51.6,10.8,77.5,2.3     c43.2-14.1,52.9-75.2,17.9-100.9c-8.1-5.9-16.6-11.3-25-17c-6.3-4.3-12.9-8.3-18.9-13.1c-7.7-6.2-11.1-17.5-7.7-25.3     c3.9-9.1,11.6-12.9,21.2-13.6c13.4-0.9,24.8,3.2,34.5,11.4L368.1,146.9L368.1,146.9z"></path>
			<path class="st1" d="M182.9,229.9c0.3-17.5-11.1-30-27-32.1c-14.6-2-28.2,0.7-39.9,10.4c-1.3,1.1-3.1,2.5-5.5,4.3l10.7-67.6     c0.9-5.8-3.1-10.5-8.9-10.5H85.1L52.8,338.3h37.8l14-88.1c2.2-7.1,5.9-13.4,12.7-17.9c6.3-4.2,13.3-4.9,19.8-1.4     c6.4,3.4,6.7,10.2,6.4,16.6c-0.2,4.2-1,8.3-1.6,12.4c-4.3,26-8.6,52.1-12.9,78.5h39c3.3-19.9,6.9-39.5,9.7-59.3     C180,262.7,182.6,246.3,182.9,229.9"></path>
		</g>
	</g>
</g>
</svg>