<svg width="281" height="40" viewBox="0 0 281 40" xmlns="http://www.w3.org/2000/svg">
    <g fill="#FFF" fill-rule="evenodd">
        <path d="M19.57 9.995a.386.386 0 0 1 .77 0 .385.385 0 0 1-.77 0zm9.516 3.944a.386.386 0 0 1 0 .77.384.384 0 0 1 0-.77zm5.097-5.193a.386.386 0 0 1 0 .77.385.385 0 0 1 0-.77zm-6.582 2.45L24.59 14.32l2.574 2.646.895-1.783a1.331 1.331 0 0 1-.319-.861 1.347 1.347 0 0 1 2.692 0c0 .743-.602 1.346-1.346 1.346-.063 0-.123-.01-.186-.018L27.72 18a.482.482 0 0 1-.775.12L20.3 11.292c-.11.029-.224.05-.344.05A1.346 1.346 0 1 1 21.3 9.995c0 .268-.078.516-.215.726l2.832 2.91 3.091-3.207a.482.482 0 0 1 .243-.136l5.592-1.237a1.347 1.347 0 0 1 1.34-1.268 1.348 1.348 0 0 1 0 2.694c-.423 0-.796-.2-1.044-.507L27.6 11.195zm6.582 16.592a.385.385 0 1 1 0 .77.385.385 0 0 1 0-.77zm17.843-4.924v-3.347a.478.478 0 0 0-.82-.341l-3.461 3.462a.454.454 0 0 0-.09.125L46 26.07l-14.746 6.554v-5.4l1.597.81c-.005.046-.014.09-.014.137a1.346 1.346 0 1 0 1.346-1.346c-.347 0-.66.136-.899.35l-2.292-1.163a.484.484 0 0 0-.47.018.483.483 0 0 0-.228.41v6.924a.48.48 0 0 0 .676.44l15.579-6.924c.02-.01.034-.026.053-.038a.372.372 0 0 0 .08-.057c.025-.024.043-.052.062-.08.012-.018.028-.03.04-.05l1.696-3.392 2.586-2.586v2.301c0 .075.016.148.051.215l1.681 3.362V39.52a.479.479 0 1 0 .96 0V26.44a.482.482 0 0 0-.051-.215l-1.681-3.36zM2.692 28.215a.386.386 0 1 1 .771 0 .386.386 0 0 1-.77 0zm6.926-.044a.384.384 0 1 1 .767 0 .384.384 0 0 1-.767 0zm4.248 4.932a.482.482 0 0 1-.603.7l-9.557-4.405c-.187.1-.4.163-.628.163a1.346 1.346 0 1 1 1.346-1.346c0 .148-.03.288-.074.42l7.81 3.6-1.798-2.773a1.303 1.303 0 0 1-.36.056 1.347 1.347 0 0 1 0-2.693c.743 0 1.346.604 1.346 1.346 0 .264-.079.51-.21.717l2.728 4.215zM6.54 1.82a.385.385 0 1 1-.002.77.385.385 0 0 1 .002-.77zm12.5 3.847c0 .212-.17.385-.382.385a.386.386 0 0 1-.387-.385c0-.212.175-.385.387-.385.213 0 .383.173.383.385zm30.39 1.459a.385.385 0 1 1 .77 0 .385.385 0 0 1-.77 0zm-15.247 7.581a.384.384 0 1 1 0-.768.384.384 0 0 1 0 .768zM23.85 9.516a.386.386 0 0 1 0-.77.385.385 0 0 1 0 .77zM6.54 3.552c.721 0 1.307-.572 1.34-1.285l3.767-1.256 5.732 4.257c-.042.128-.069.26-.069.4 0 .743.605 1.347 1.348 1.347.74 0 1.345-.604 1.345-1.347s-.604-1.346-1.345-1.346c-.25 0-.483.073-.684.192l-3.219-2.392 10.657 3.996a.422.422 0 0 0 .109.027l3.083.386v.387h-3.089a.482.482 0 0 0-.307.11l-.993.813a1.29 1.29 0 0 0-.365-.058 1.348 1.348 0 0 0 0 2.694c.742 0 1.346-.604 1.346-1.347 0-.253-.073-.487-.195-.689l.685-.561h3.4a.482.482 0 0 0 .481-.481V6.65l9.736 1.216 2.738 1.175-7.066 4.2a1.324 1.324 0 0 0-.792-.265 1.347 1.347 0 0 0 0 2.692 1.347 1.347 0 0 0 1.317-1.621l7.58-4.504c.018-.01.027-.028.042-.038l8.236 3.528a.479.479 0 0 0 .668-.441V11.06l1.591-1.59a.48.48 0 0 0-.34-.82h-1.543l-.816-.754a1.34 1.34 0 0 0 .245-.77 1.348 1.348 0 0 0-2.694 0 1.347 1.347 0 0 0 1.625 1.317l1.125 1.04a.482.482 0 0 0 .328.129h.57l-.912.909a.49.49 0 0 0-.14.34v1.002L39.619 6.957a.452.452 0 0 0-.13-.035L25.697 5.197 11.902.025c-.01-.004-.021-.003-.033-.006a.474.474 0 0 0-.066-.014.43.43 0 0 0-.175.007c-.016.003-.033.002-.048.007L7.573 1.354A1.337 1.337 0 0 0 6.54.86a1.347 1.347 0 0 0 0 2.692zm20.815 25.965c.212 0 .385.173.385.385a.386.386 0 0 1-.77 0c0-.212.173-.385.385-.385zm-10.622 3.96a.384.384 0 1 1 0-.769.384.384 0 0 1 0 .769zm10.622-4.92c-.742 0-1.346.603-1.346 1.345 0 .573.361 1.06.865 1.254v1.728h-4.11l1.542-4.558a.482.482 0 0 0-.73-.55L17.49 31.98a1.334 1.334 0 0 0-.757-.235 1.348 1.348 0 0 0 0 2.693c.743 0 1.346-.604 1.346-1.346 0-.111-.017-.217-.042-.32l4.892-3.381-1.291 3.818c-.008.026-.006.05-.01.076-.005.027-.016.051-.016.078 0 .008.003.012.003.018.002.035.012.066.02.1.008.029.013.057.023.083.012.027.032.05.051.074.018.027.034.052.056.074.02.019.045.03.07.046.03.019.056.04.088.053.007.002.01.006.017.009a.47.47 0 0 0 .153.024h5.262a.481.481 0 0 0 .481-.481v-2.208c.504-.195.865-.681.865-1.254 0-.742-.604-1.346-1.346-1.346zm0-3.463a.385.385 0 1 1 0-.768.385.385 0 0 1 0 .768zm-19.47-2.116a.386.386 0 1 1 .77.003.386.386 0 0 1-.77-.003zm22.888-4.808a.384.384 0 0 1 0-.77.386.386 0 1 1 0 .77zm13.848-5.962a.385.385 0 1 1-.385.385c0-.212.174-.385.385-.385zm-6.923 12.886a.385.385 0 0 1 0-.769.384.384 0 0 1 0 .769zm-5.193-1.745a.385.385 0 1 1 0-.769.385.385 0 0 1 0 .769zm-4.669.106v-2.254l4.188-.558v1.068c-.505.194-.865.68-.865 1.253 0 .743.604 1.348 1.346 1.348.743 0 1.347-.605 1.347-1.348 0-.572-.36-1.06-.867-1.253v-1.196l2.952-.394 4.307 1.128-2.108 2.193a1.322 1.322 0 0 0-.438-.078 1.347 1.347 0 0 0 0 2.692c.742 0 1.346-.604 1.346-1.347 0-.235-.066-.452-.172-.645l2.635-2.739a.483.483 0 0 0 .117-.463.488.488 0 0 0-.343-.336l-2.83-.74 11.427-1.524a.476.476 0 0 0 .276-.137l1.732-1.73c.09-.091.14-.214.14-.34v-1.732a.479.479 0 0 0-.48-.48h-1.731c-.128 0-.25.05-.34.14l-1.607 1.608-7.517.653 1.064-1.629 2.393-.958c.228.174.506.282.813.282a1.347 1.347 0 0 0 0-2.694 1.348 1.348 0 0 0-1.322 1.58l-2.383.955a.48.48 0 0 0-.223.183l-1.561 2.387-7.283.632v.001a1.343 1.343 0 0 0-1.076-.544c-.74 0-1.346.604-1.346 1.346a1.343 1.343 0 0 0 2.679.14l16.02-1.391a.473.473 0 0 0 .297-.14l1.592-1.59h1.05v1.05L49.59 17.33l-13.693 1.826-12.068 1.609-3.36-.15c-.023 0-.04.009-.064.01-.034.005-.065.006-.1.017-.029.01-.056.026-.084.041-.02.012-.043.015-.063.03l-6.775 5.145-3.866-2.376a1.346 1.346 0 1 0-1.247.843c.203 0 .394-.05.568-.131l4.32 2.656a.479.479 0 0 0 .543-.026l6.9-5.24 3.228.143.02.001a.4.4 0 0 0 .064-.004l2.96-.394v2.125a1.347 1.347 0 0 0-.865 1.254c0 .743.604 1.347 1.346 1.347.742 0 1.346-.604 1.346-1.347 0-.572-.36-1.06-.865-1.254zM13.848 12.593a.385.385 0 1 1-.77-.002.385.385 0 0 1 .77.002zm-1.73-6.925a.385.385 0 1 1-.77 0 .385.385 0 0 1 .77 0zm1.345 8.27a1.348 1.348 0 0 0 0-2.693c-.193 0-.379.045-.547.12l-5.52-5.52L9.92 4.837l.535.426c-.042.13-.07.263-.07.405a1.347 1.347 0 1 0 1.345-1.346c-.246 0-.475.071-.676.19l-.752-.6a.48.48 0 0 0-.477-.072L6.36 5.222a.483.483 0 0 0-.293.349.475.475 0 0 0 .132.436l6.037 6.038a1.322 1.322 0 0 0-.12.548c0 .742.605 1.346 1.346 1.346zM4.81 8.747a.385.385 0 1 1-.002.77.385.385 0 0 1 .002-.77zm10.385.77a.385.385 0 0 1 0-.77.385.385 0 0 1 0 .77zm-10.385.96c.196 0 .38-.044.548-.118l4.304 4.305c.062.062.14.106.224.127l13.849 3.462a.481.481 0 0 0 .285-.018l.046-.025a.582.582 0 0 0 .104-.07c.006-.006.014-.008.022-.014.008-.009.01-.02.02-.03a.551.551 0 0 0 .091-.16c.004-.011.01-.02.014-.034.005-.018 0-.036.003-.054a.433.433 0 0 0 .005-.1.533.533 0 0 0-.049-.173.43.43 0 0 0-.054-.082c-.012-.015-.017-.033-.03-.046l-7.77-7.768c.076-.168.12-.352.12-.548a1.35 1.35 0 0 0-1.347-1.347 1.348 1.348 0 0 0 0 2.693c.195 0 .381-.044.548-.118l6.542 6.54-12.037-3.009-4.212-4.211c.076-.168.12-.352.12-.548 0-.742-.604-1.347-1.346-1.347a1.347 1.347 0 0 0 0 2.693zm38.025 14.618a.385.385 0 1 1 0-.768.385.385 0 0 1 0 .768zm3.52-4.295a.385.385 0 1 1-.385.384c0-.21.173-.384.384-.384zm0 1.73a1.347 1.347 0 1 0-1.346-1.346c0 .197.042.381.118.549L43.38 23.48a1.347 1.347 0 1 0 .8 1.229c0-.196-.044-.381-.12-.55l1.748-1.749c.166.075.352.119.545.119zm-45.007.835a.386.386 0 0 1-.385-.386.384.384 0 1 1 .768 0c0 .212-.17.386-.383.386zm13.847-2.501a.385.385 0 1 1 0 .769.385.385 0 0 1 0-.77zm-8.27 5.577a.385.385 0 1 1-.77 0 .385.385 0 0 1 .77 0zm-4.232-3.462c0-.196-.043-.379-.118-.548l1.753-1.753v2.301c0 .08.021.16.06.23l1.23 2.257a1.34 1.34 0 0 0-.424.975 1.347 1.347 0 1 0 1.347-1.346c-.009 0-.018.004-.027.004L5.29 22.856v-2.773l8.585 1.426a1.347 1.347 0 0 0 2.667-.261c0-.743-.605-1.347-1.348-1.347-.49 0-.916.267-1.152.66l-9.154-1.52c-.021-.003-.04-.001-.06-.002-.008 0-.012-.003-.019-.003l-.012.002a.465.465 0 0 0-.16.032c-.013.004-.021.01-.033.015a.464.464 0 0 0-.135.091l-2.574 2.575A1.347 1.347 0 0 0 0 22.978a1.347 1.347 0 0 0 2.692 0zm12.502 7.31a.385.385 0 0 1 0-.77.385.385 0 0 1 0 .77zm6.9-5.963a.384.384 0 1 1-.001.767.384.384 0 0 1 0-.767zm-5.552 5.577a1.34 1.34 0 0 0-.089-.467l4.911-3.596a1.342 1.342 0 0 0 2.075-1.13 1.347 1.347 0 0 0-2.692 0c0 .122.023.24.052.352l-4.988 3.652a1.338 1.338 0 0 0-.617-.157 1.347 1.347 0 1 0 1.347 1.346zM90.739 9.995a.386.386 0 0 1-.77 0 .385.385 0 0 1 .77 0zm-9.517 3.944a.384.384 0 1 1-.001.768.384.384 0 0 1 .001-.768zm-26.07 8.655a.385.385 0 1 1-.385.384c0-.212.174-.384.386-.384zM76.126 8.746a.385.385 0 1 1-.002.77.385.385 0 0 1 .002-.77zM77.17 9.97a1.34 1.34 0 0 1-1.044.507 1.347 1.347 0 0 1 0-2.694c.716 0 1.295.563 1.34 1.268l5.593 1.237c.09.02.176.068.242.136l3.09 3.208 2.832-2.911a1.346 1.346 0 1 1 1.13.62c-.118 0-.233-.02-.344-.049l-6.646 6.829a.478.478 0 0 1-.774-.12l-1.18-2.35c-.063.009-.123.018-.186.018a1.347 1.347 0 0 1 0-2.692c.742 0 1.345.604 1.345 1.346 0 .33-.122.628-.318.861l.895 1.783 2.574-2.646-3.011-3.126-5.538-1.225zm-1.044 17.818a.384.384 0 1 1 0 .768.384.384 0 0 1 0-.768zm-19.523-1.563a.475.475 0 0 0-.052.215v13.08a.48.48 0 1 0 .96 0V26.555l1.681-3.362a.461.461 0 0 0 .051-.215v-2.3l2.586 2.585 1.695 3.392c.013.02.03.032.041.05.02.028.037.056.063.08.023.023.05.04.08.057.018.012.031.028.052.038l15.58 6.924a.487.487 0 0 0 .458-.036.48.48 0 0 0 .217-.404V26.44a.482.482 0 0 0-.227-.41.484.484 0 0 0-.47-.018l-2.293 1.164a1.34 1.34 0 0 0-2.245.995 1.346 1.346 0 1 0 2.692 0c0-.047-.009-.091-.014-.137l1.597-.81v5.4L64.307 26.07l-1.654-3.307a.452.452 0 0 0-.09-.125l-3.461-3.462a.479.479 0 0 0-.82.34v3.348l-1.68 3.361zm51.014 1.99a.386.386 0 0 1-.77 0 .386.386 0 0 1 .77 0zm-6.926-.044a.385.385 0 1 1-.77.001.385.385 0 0 1 .77 0zm-1.52.717a1.336 1.336 0 0 1-.21-.717 1.346 1.346 0 1 1 1.346 1.347c-.125 0-.245-.023-.36-.056l-1.797 2.772 7.81-3.598a1.332 1.332 0 0 1-.075-.42 1.347 1.347 0 1 1 1.346 1.346c-.229-.001-.44-.064-.628-.164l-9.557 4.404a.485.485 0 0 1-.565-.123.482.482 0 0 1-.038-.576l2.728-4.215zm4.598-27.067c.213 0 .386.173.386.385a.385.385 0 1 1-.386-.385zm-12.5 3.847c0-.212.17-.385.382-.385s.386.173.386.385a.386.386 0 0 1-.386.385.383.383 0 0 1-.383-.385zm-30.39 1.459a.384.384 0 1 1-.768 0 .384.384 0 0 1 .768 0zm15.247 7.581a.385.385 0 0 1 0-.77.385.385 0 0 1 0 .77zm10.333-5.192a.385.385 0 1 1 .002-.77.385.385 0 0 1-.002.77zm17.31-5.964a1.347 1.347 0 0 0 0-2.692c-.417 0-.786.195-1.034.494L98.728.019c-.015-.005-.032-.004-.048-.007a.413.413 0 0 0-.175-.007.483.483 0 0 0-.066.014c-.012.003-.023.002-.033.006L84.611 5.197 70.819 6.922a.456.456 0 0 0-.13.035l-11.446 4.906v-1.001a.488.488 0 0 0-.14-.341l-.912-.91h.57a.483.483 0 0 0 .328-.128l1.124-1.04a1.347 1.347 0 1 0-.823-.547l-.816.753h-1.543a.48.48 0 0 0-.444.297.478.478 0 0 0 .104.524l1.592 1.59v1.533a.48.48 0 0 0 .667.44l8.237-3.527c.014.01.024.028.041.038l7.58 4.504a1.346 1.346 0 1 0 1.317-1.07c-.299 0-.57.1-.793.264l-7.065-4.2 2.738-1.175 9.736-1.216V7.4c0 .265.216.48.481.48h3.4l.686.562a1.322 1.322 0 0 0-.195.689c0 .743.603 1.347 1.345 1.347a1.348 1.348 0 0 0 0-2.694c-.127 0-.249.024-.365.058l-.993-.813a.484.484 0 0 0-.307-.11h-3.089v-.387l3.083-.386a.42.42 0 0 0 .109-.027l10.657-3.996-3.22 2.392a1.33 1.33 0 0 0-.683-.192 1.348 1.348 0 0 0 0 2.693c.743 0 1.348-.604 1.348-1.347 0-.14-.027-.272-.069-.4l5.732-4.257 3.766 1.256c.034.713.62 1.285 1.341 1.285zM82.954 29.517c.211 0 .384.173.384.385a.386.386 0 0 1-.77 0c0-.212.172-.385.386-.385zm10.62 3.96a.386.386 0 0 1-.384-.384.386.386 0 0 1 .77 0 .385.385 0 0 1-.385.384zm-10.62-4.92c-.743 0-1.347.603-1.347 1.345 0 .573.361 1.06.865 1.254v2.208c0 .266.215.481.482.481h5.26a.47.47 0 0 0 .154-.024l.017-.01c.032-.012.058-.033.089-.052.024-.016.05-.027.07-.046.021-.022.036-.047.054-.074.02-.024.04-.047.052-.074.01-.026.015-.054.022-.083.01-.034.019-.065.021-.1 0-.006.003-.01.003-.018 0-.027-.011-.051-.016-.078-.004-.025-.002-.05-.01-.076l-1.29-3.818 4.891 3.38c-.025.104-.042.21-.042.32a1.347 1.347 0 1 0 .589-1.111l-6.086-4.205a.482.482 0 0 0-.73.55l1.542 4.558h-4.11v-1.728c.504-.195.865-.681.865-1.254 0-.742-.604-1.346-1.345-1.346zm0-3.463a.385.385 0 1 1-.003-.767.385.385 0 0 1 .003.767zm19.47-2.116a.387.387 0 0 1-.772 0 .385.385 0 0 1 .772 0zM79.535 18.17a.386.386 0 1 1-.001-.771.386.386 0 0 1 .001.77zm-13.848-5.962a.385.385 0 1 1-.001.768.385.385 0 0 1 .001-.768zm6.924 12.886a.385.385 0 1 1 0-.77.385.385 0 0 1 0 .77zm5.192-1.745a.385.385 0 0 1 0-.77.384.384 0 0 1 0 .77zm4.669.106a1.347 1.347 0 0 0-.865 1.254c0 .743.604 1.347 1.347 1.347.741 0 1.345-.604 1.345-1.347 0-.572-.361-1.06-.864-1.254V21.33l2.96.394a.39.39 0 0 0 .063.004h.02l3.228-.144 6.9 5.24a.48.48 0 0 0 .542.026l4.32-2.656c.175.082.365.13.569.13.742 0 1.346-.603 1.346-1.346a1.346 1.346 0 1 0-2.594.503l-3.865 2.377-6.776-5.144c-.02-.016-.042-.02-.062-.03-.027-.016-.055-.032-.084-.042-.035-.01-.067-.012-.1-.016-.024-.002-.04-.011-.064-.01l-3.36.149-12.067-1.609-13.695-1.826-1.473-1.475v-1.052h1.05l1.592 1.591c.079.08.184.13.297.14l16.02 1.392a1.343 1.343 0 0 0 1.333 1.206 1.348 1.348 0 0 0 0-2.693c-.441 0-.83.216-1.077.544l-7.282-.633-1.561-2.387a.479.479 0 0 0-.223-.183l-2.383-.954a1.348 1.348 0 0 0-1.322-1.58 1.348 1.348 0 0 0 0 2.693c.307 0 .586-.108.814-.282l2.392.958 1.064 1.629-7.517-.653-1.607-1.608a.48.48 0 0 0-.34-.14h-1.732a.479.479 0 0 0-.478.48v1.731c0 .127.049.25.139.34l1.732 1.731c.072.074.17.122.276.137l11.427 1.524-2.83.74a.488.488 0 0 0-.343.336c-.046.164 0 .34.117.463l2.635 2.74c-.106.192-.172.41-.172.644a1.348 1.348 0 0 0 2.692 0c0-.742-.603-1.345-1.345-1.345-.155 0-.301.03-.439.078l-2.109-2.193 4.308-1.128 2.952.394v1.196c-.507.194-.867.68-.867 1.253 0 .743.604 1.348 1.347 1.348.742 0 1.346-.605 1.346-1.348 0-.572-.36-1.06-.865-1.253v-1.068l4.188.558v2.254zM96.46 12.593a.386.386 0 0 1 .77 0 .384.384 0 0 1-.77 0zm1.73-6.925a.385.385 0 1 1 .77 0 .385.385 0 0 1-.77 0zm-1.345 8.27c.74 0 1.345-.603 1.345-1.345 0-.196-.043-.38-.119-.548l6.037-6.038a.474.474 0 0 0 .132-.436.483.483 0 0 0-.293-.349l-3.465-1.382a.479.479 0 0 0-.477.071l-.752.6c-.201-.118-.43-.19-.677-.19a1.347 1.347 0 0 0 0 2.694c.742 0 1.346-.604 1.346-1.347 0-.142-.028-.276-.07-.405l.535-.426 2.525 1.008-5.52 5.52a1.34 1.34 0 0 0-.547-.12 1.348 1.348 0 0 0 0 2.694zm8.654-5.192a.386.386 0 0 1 0 .77.386.386 0 0 1 0-.77zm-10.385.77a.386.386 0 0 1 0-.77.385.385 0 0 1 0 .77zm10.385.96a1.347 1.347 0 0 0 0-2.693 1.347 1.347 0 0 0-1.226 1.895l-4.212 4.211-12.036 3.01 6.54-6.541A1.348 1.348 0 0 0 96.46 9.13a1.35 1.35 0 0 0-1.345-1.347 1.35 1.35 0 0 0-1.348 1.347c0 .196.046.38.12.548l-7.768 7.768c-.013.013-.019.03-.031.046a.493.493 0 0 0-.055.082.595.595 0 0 0-.048.174.403.403 0 0 0 .005.099c.003.018-.002.036.003.054.003.013.01.023.014.035a.513.513 0 0 0 .092.159c.008.01.01.021.02.03.007.006.015.008.021.015.032.028.068.05.104.07.017.007.03.016.046.023a.481.481 0 0 0 .285.019l13.85-3.462a.485.485 0 0 0 .223-.127l4.305-4.305c.168.074.351.118.547.118zM67.474 25.094a.385.385 0 1 1 0-.77.385.385 0 0 1 0 .77zm-3.519-4.295a.385.385 0 1 1-.385.384c0-.21.174-.384.385-.384zm0 1.73c.193 0 .379-.043.545-.118l1.747 1.75a1.347 1.347 0 1 0 .68-.68l-1.745-1.75c.076-.167.119-.351.119-.548a1.346 1.346 0 1 0-1.346 1.347zm45.006.835a.384.384 0 0 1-.383-.386.384.384 0 1 1 .767 0 .386.386 0 0 1-.384.386zm-13.847-2.501a.384.384 0 1 1-.002.768.384.384 0 0 1 .002-.768zm8.27 5.577a.385.385 0 1 1 .77.001.385.385 0 0 1-.77 0zm4.232-3.462a1.347 1.347 0 0 0 2.692 0 1.347 1.347 0 0 0-1.895-1.227l-2.574-2.575a.459.459 0 0 0-.136-.091l-.031-.015a.468.468 0 0 0-.162-.032l-.011-.002c-.007 0-.011.003-.018.003-.02 0-.04-.001-.06.003l-9.155 1.519a1.343 1.343 0 0 0-1.152-.66c-.743 0-1.348.604-1.348 1.347a1.348 1.348 0 0 0 2.667.261l8.586-1.426v2.773l-1.224 2.242c-.009 0-.018-.004-.027-.004a1.347 1.347 0 0 0 0 2.692c.744 0 1.346-.603 1.346-1.346 0-.384-.163-.73-.422-.975l1.23-2.256a.483.483 0 0 0 .059-.23v-2.302l1.753 1.753a1.326 1.326 0 0 0-.118.548zm-12.502 7.31a.385.385 0 0 1 0-.77.385.385 0 0 1 0 .77zm-6.9-5.963a.384.384 0 1 1 0 .767.384.384 0 0 1 0-.767zm5.552 5.577a1.348 1.348 0 0 0 2.694 0c0-.742-.605-1.346-1.346-1.346-.223 0-.43.06-.618.157L89.51 25.06c.029-.113.052-.23.052-.352a1.347 1.347 0 0 0-2.692 0c0 .743.604 1.347 1.346 1.347.267 0 .518-.081.729-.217l4.91 3.596a1.354 1.354 0 0 0-.088.467zM51.223 4.188c-.004.03-.01.062-.01.093.002.03.013.058.02.088.007.03.011.06.025.09.014.028.035.05.052.076.018.023.028.05.05.07l1.829 1.73c.09.086.207.133.328.133.031 0 .062-.005.09-.011a.486.486 0 0 0 .242-.01l1.304-.39 1.303.39c.08.024.164.027.243.01.03.006.06.011.088.011.122 0 .241-.047.332-.132l1.827-1.732c.023-.02.033-.046.048-.07.02-.025.042-.048.056-.075.014-.03.015-.06.024-.09.008-.03.018-.058.019-.088.002-.031-.006-.061-.011-.093-.004-.03-.005-.06-.014-.088-.01-.031-.032-.058-.049-.087-.012-.024-.021-.049-.04-.07l-.007-.007c-.003-.003-.003-.007-.008-.011-.02-.021-.047-.032-.069-.05-.025-.018-.05-.04-.076-.053-.029-.013-.058-.017-.088-.024-.03-.007-.06-.018-.09-.02-.031-.002-.06.007-.09.01-.031.005-.062.005-.092.016-.03.01-.056.03-.085.047-.023.013-.05.021-.073.04l-1.78 1.527-1.244-.329c-.016-.004-.035-.003-.052-.007-.024-.002-.048-.007-.072-.007-.02 0-.042.004-.062.007-.021.003-.04.002-.06.007l-1.244.33-1.784-1.528c-.02-.019-.047-.027-.07-.04-.028-.017-.054-.037-.085-.047-.03-.01-.06-.01-.091-.016-.03-.003-.06-.012-.09-.01-.031.002-.06.013-.09.02-.03.007-.06.011-.088.024-.028.013-.05.035-.076.053-.022.018-.051.029-.071.05l-.006.011c-.002.003-.008.004-.01.007-.019.021-.025.046-.038.07-.018.03-.04.056-.048.087-.012.028-.012.058-.017.088zm3.93 19.176a.386.386 0 0 1 0-.77c.212 0 .385.173.385.384a.386.386 0 0 1-.385.386zm0-11.156a.385.385 0 1 1 0 .768.385.385 0 0 1 0-.768zm1.348.385c0-.743-.604-1.348-1.348-1.348a1.345 1.345 0 0 0-.48 2.6v7.88a1.347 1.347 0 0 0-.866 1.253 1.347 1.347 0 0 0 2.694 0c0-.572-.362-1.06-.866-1.254v-7.878c.504-.194.866-.681.866-1.253zm-1.348.384a.386.386 0 0 1 0-.77c.212 0 .385.174.385.385a.386.386 0 0 1-.385.385zM119.206 20.457h.823V9.347l10.852 11.539V7.53h-.822v11.282L119.206 7.359v13.098zm16.889-5.024 2.537-6.24 2.52 6.24h-5.057zm7.939 5.025L138.632 7.1l-5.418 13.357h.84l1.732-4.253h5.675l1.732 4.253h.84zm23.576-.601c-3.224 0-5.881-2.674-5.881-5.863 0-3.19 2.657-5.865 5.88-5.865 3.206 0 5.882 2.675 5.882 5.865 0 3.172-2.676 5.863-5.881 5.863m0-12.499c-3.536 0-6.51 2.812-6.695 6.289h-2.874V7.529h-.822v11.282L146.366 7.358v13.1h.823V9.346l10.852 11.54v-6.435h2.883c.244 3.426 3.205 6.177 6.686 6.177 3.634 0 6.704-3 6.704-6.634 0-3.636-3.07-6.636-6.704-6.636M183.916 17.731c-1.201 1.131-2.541 1.357-4.141 1.357h-1.061V8.684h1.06c1.55 0 2.871.209 4.072 1.27 1.13.992 1.705 2.436 1.705 3.932 0 1.462-.556 2.836-1.635 3.845m.922-8.82c-1.55-1.323-3.149-1.584-5.115-1.584h-2.47v13.118h2.436c2.052 0 3.618-.261 5.183-1.652 1.445-1.287 2.141-2.976 2.141-4.89 0-1.948-.679-3.706-2.175-4.992m5.113 11.535h1.461V7.328h-1.46v13.118zm11.465-2.854-4.767-11.013-2.662 13.866h1.496l1.688-8.873h.035l4.21 9.412 4.228-9.412h.035l1.687 8.873h1.496L206.2 6.58l-4.784 11.013zm9.985 2.853h6.803v-1.357h-5.342v-5.15h5.184v-1.356h-5.184V8.685h5.342V7.327H211.4v13.118zm20.476-2.957L221.647 6.77v13.675h1.462V10.337l10.23 10.7V7.327h-1.462v10.16zm9.498-4.559-.87-.382c-.887-.4-2.054-.923-2.054-2.053 0-1.2 1.01-2.036 2.175-2.036 1.114 0 1.74.521 2.262 1.427l1.166-.748c-.695-1.288-1.931-2.036-3.393-2.036-1.948 0-3.67 1.305-3.67 3.34 0 1.88 1.321 2.662 2.853 3.359l.8.347c1.219.557 2.418 1.078 2.418 2.61 0 1.478-1.287 2.558-2.696 2.558-1.41 0-2.436-1.097-2.628-2.436l-1.426.4c.418 2.036 1.984 3.392 4.089 3.392 2.279 0 4.122-1.757 4.122-4.053 0-2.088-1.443-2.941-3.148-3.689m6.192 7.517h1.462V7.328h-1.462v13.118zm11.172-1.113c-2.976 0-5.377-2.471-5.377-5.429 0-2.974 2.367-5.427 5.377-5.427s5.374 2.453 5.374 5.427c0 2.958-2.4 5.429-5.374 5.429zm20.006-11.987v10.16L268.515 6.79v6.24h-3c-.445-3.336-3.338-5.91-6.776-5.91-3.741 0-6.838 3.046-6.838 6.803 0 3.776 3.097 6.768 6.838 6.768 3.544 0 6.51-2.689 6.81-6.182h2.965v5.956h1.462V10.355l10.23 10.7V7.345h-1.461zM140.69 32.964h-2.885v-5.177h2.885v.535h-2.284v1.668h2.146v.53h-2.146v1.906h2.284v.538zm1.189 0h.588v-5.51h-.588v5.51zm3.605.07c-.574 0-1.027-.174-1.358-.523-.332-.35-.498-.835-.498-1.455 0-.626.154-1.123.462-1.491.308-.368.722-.553 1.241-.553.487 0 .871.16 1.155.48.283.32.425.742.425 1.266v.372h-2.674c.012.455.127.801.346 1.037.217.237.525.355.922.355.418 0 .83-.088 1.239-.262v.524c-.207.09-.404.153-.59.193-.185.039-.409.058-.67.058m-.16-3.53c-.311 0-.56.101-.745.304-.186.203-.295.484-.328.843h2.03c0-.37-.083-.655-.248-.852-.166-.197-.402-.295-.709-.295m4.27 3.53c-.562 0-.997-.173-1.305-.519-.308-.346-.462-.835-.462-1.467 0-.65.157-1.151.47-1.505.312-.354.758-.532 1.336-.532.187 0 .373.02.56.06.186.04.333.088.438.142l-.18.5a2.774 2.774 0 0 0-.425-.13 1.912 1.912 0 0 0-.407-.05c-.788 0-1.183.501-1.183 1.507 0 .477.096.843.289 1.098.192.255.477.383.855.383.323 0 .655-.07.995-.21v.521c-.26.134-.587.202-.98.202m3.285-.485a1.926 1.926 0 0 0 .53-.071v.45c-.063.03-.157.056-.28.076-.125.02-.236.03-.335.03-.751 0-1.126-.395-1.126-1.186v-2.31h-.557v-.282l.557-.245.248-.828h.34v.9h1.126v.456h-1.126v2.284c0 .234.055.413.166.538a.578.578 0 0 0 .457.188m3.207-3.538c.172 0 .327.015.464.043l-.081.545a2.017 2.017 0 0 0-.425-.053c-.314 0-.583.128-.806.383-.223.255-.335.572-.335.952v2.082h-.587v-3.88h.485l.067.718h.028c.144-.253.318-.447.52-.584.204-.137.427-.206.67-.206m1.27-.98c0-.135.048-.233.144-.296a.633.633 0 0 1 .357-.094c.136 0 .254.032.352.095.098.065.148.163.148.295 0 .132-.05.23-.148.295a.622.622 0 0 1-.352.098.616.616 0 0 1-.357-.098c-.096-.064-.143-.163-.143-.295zm.073 4.932h.846v-3.88h-.846v3.88zm4.544-3.88.85 2.212c.186.505.302.87.347 1.095h.028c.031-.12.096-.327.193-.618.098-.292.419-1.188.962-2.69h.63l-1.668 4.42c-.165.436-.358.746-.579.929a1.23 1.23 0 0 1-.812.274c-.18 0-.357-.02-.532-.06v-.471c.13.029.275.043.436.043.404 0 .692-.227.864-.68l.216-.552-1.565-3.903h.63zm-1.179-1.668c.206 0 .447.04.723.123l-.152.472a1.94 1.94 0 0 0-.581-.11c-.222 0-.386.073-.492.221-.107.148-.16.384-.16.71v.251h.988v.457h-.987v3.424h-.588V29.54h-.695v-.266l.695-.212v-.216c0-.954.416-1.43 1.25-1.43zm4.9.616c0-.135.048-.233.143-.296a.633.633 0 0 1 .357-.094c.136 0 .253.032.352.095.098.065.148.163.148.295 0 .132-.05.23-.148.295a.626.626 0 0 1-.352.098.616.616 0 0 1-.357-.098c-.095-.064-.143-.163-.143-.295zm.071 4.932h.847v-3.88h-.847v3.88zm4.6 0v-2.51c0-.317-.073-.553-.217-.708-.144-.156-.37-.234-.676-.234-.406 0-.704.11-.893.33-.188.218-.283.58-.283 1.086v2.036h-.588v-3.881h.478l.096.532h.028a1.2 1.2 0 0 1 .507-.445 1.64 1.64 0 0 1 .726-.157c.467 0 .819.112 1.055.338.236.225.354.585.354 1.081v2.532h-.588zm5.101-3.88v.371l-.719.085a1.245 1.245 0 0 1 .255.775c0 .38-.13.684-.39.91-.259.227-.615.34-1.069.34a1.78 1.78 0 0 1-.325-.028c-.25.132-.375.3-.375.5 0 .106.043.184.13.235.088.05.238.076.45.076h.687c.42 0 .743.088.969.266.225.177.338.434.338.772 0 .429-.173.757-.518.982-.344.226-.846.338-1.508.338-.507 0-.898-.094-1.173-.283a.913.913 0 0 1-.413-.8c0-.236.076-.44.227-.613.15-.172.363-.289.637-.35a.617.617 0 0 1-.25-.209.556.556 0 0 1-.1-.33c0-.141.037-.265.113-.371.075-.106.195-.21.357-.309a1.05 1.05 0 0 1-.49-.42 1.24 1.24 0 0 1-.19-.68c0-.425.128-.753.383-.983.255-.23.616-.346 1.084-.346.202 0 .386.024.548.071h1.342zm-3.094 4.532c0 .21.088.37.265.478.177.109.43.163.761.163.494 0 .859-.074 1.096-.222.238-.147.356-.348.356-.6 0-.21-.065-.356-.194-.437-.13-.082-.375-.122-.734-.122h-.704c-.267 0-.475.063-.623.19-.149.128-.223.311-.223.55zm.318-3.29c0 .271.077.477.23.616.153.14.367.21.642.21.573 0 .86-.28.86-.836 0-.584-.29-.875-.871-.875-.277 0-.49.075-.638.223-.148.149-.223.37-.223.662zm9.496 2.638-.645-1.646h-2.075l-.637 1.646h-.61l2.047-5.198h.507l2.036 5.198h-.623zm-.833-2.188-.602-1.604a8.703 8.703 0 0 1-.24-.747 6.731 6.731 0 0 1-.223.747l-.61 1.604h1.675zm4.851 1.668h-.032c-.272.394-.677.591-1.218.591-.508 0-.903-.173-1.185-.52-.281-.348-.422-.84-.422-1.48s.141-1.138.424-1.491c.283-.354.678-.532 1.183-.532.526 0 .93.192 1.211.574h.046l-.025-.28-.014-.273v-1.578h.588v5.509h-.478l-.078-.52zm-1.176.099c.401 0 .693-.11.873-.328.18-.218.271-.57.271-1.057v-.124c0-.55-.091-.942-.275-1.177-.182-.235-.474-.353-.876-.353-.345 0-.608.134-.791.402-.183.269-.274.647-.274 1.136 0 .495.09.87.272 1.122.182.252.448.379.8.379zm5.75-.1h-.032c-.27.395-.677.592-1.218.592-.507 0-.902-.173-1.184-.52-.282-.348-.423-.84-.423-1.48s.141-1.138.424-1.491c.284-.354.678-.532 1.183-.532.527 0 .93.192 1.211.574h.046l-.024-.28-.015-.273v-1.578h.588v5.509h-.478l-.078-.52zm-1.176.1c.402 0 .693-.11.874-.328.18-.218.27-.57.27-1.057v-.124c0-.55-.091-.942-.274-1.177-.183-.235-.475-.353-.876-.353-.345 0-.61.134-.792.402-.183.269-.274.647-.274 1.136 0 .495.09.87.272 1.122.182.252.45.379.8.379zm3.06-4.511c0-.135.047-.233.143-.296a.633.633 0 0 1 .357-.094c.136 0 .253.032.352.095.098.065.148.163.148.295 0 .132-.05.23-.148.295a.624.624 0 0 1-.352.098.616.616 0 0 1-.357-.098c-.096-.064-.143-.163-.143-.295zm.07 4.932h.848v-3.88h-.847v3.88zm3.197-.414a1.934 1.934 0 0 0 .532-.071v.45c-.064.03-.158.056-.282.076-.124.02-.236.03-.335.03-.75 0-1.126-.395-1.126-1.186v-2.31h-.555v-.282l.555-.245.248-.828h.34v.9h1.126v.456h-1.126v2.284c0 .234.056.413.166.538a.578.578 0 0 0 .457.188m1.388-4.518c0-.135.047-.233.143-.296a.633.633 0 0 1 .357-.094c.136 0 .253.032.352.095.098.065.148.163.148.295 0 .132-.05.23-.148.295a.624.624 0 0 1-.352.098.616.616 0 0 1-.357-.098c-.096-.064-.143-.163-.143-.295zm.071 4.932h.847v-3.88h-.847v3.88zm2.793 0-1.473-3.881h.63l.836 2.302c.189.538.3.887.333 1.048h.028c.026-.125.108-.384.246-.777s.448-1.25.93-2.573h.63l-1.473 3.881h-.687zm4.553.07c-.574 0-1.026-.174-1.358-.523-.332-.35-.497-.835-.497-1.455 0-.626.154-1.123.462-1.491.308-.368.722-.553 1.241-.553.486 0 .871.16 1.154.48.284.32.425.742.425 1.266v.372h-2.673c.012.455.127.801.345 1.037.218.237.526.355.922.355.418 0 .831-.088 1.24-.262v.524c-.208.09-.405.153-.59.193a3.324 3.324 0 0 1-.67.058m-.16-3.53c-.312 0-.56.101-.745.304-.186.203-.295.484-.328.843h2.029c0-.37-.083-.655-.248-.852-.165-.197-.401-.295-.708-.295m7.838 3.46-1.757-4.59h-.028c.033.364.05.796.05 1.296v3.293h-.556v-5.177h.906l1.64 4.27h.028l1.654-4.27h.899v5.177h-.602V29.63c0-.383.017-.798.05-1.247h-.028l-1.771 4.582h-.485zm6.684 0-.116-.553h-.029c-.193.243-.386.408-.579.494a1.77 1.77 0 0 1-.72.13c-.385 0-.686-.1-.905-.299-.218-.198-.328-.48-.328-.846 0-.783.627-1.194 1.881-1.232l.658-.021v-.241c0-.304-.065-.53-.196-.674-.131-.145-.341-.218-.629-.218-.323 0-.689.099-1.098.297l-.18-.45c.191-.103.4-.185.629-.244a2.71 2.71 0 0 1 .684-.088c.463 0 .806.102 1.03.307.223.206.334.535.334.989v2.648h-.436zm-1.328-.415c.366 0 .654-.1.863-.301.209-.2.313-.482.313-.843v-.35l-.588.025c-.467.016-.804.088-1.01.217-.207.13-.31.329-.31.6 0 .213.064.374.193.485.128.111.308.167.54.167zm5.761.414v-2.51c0-.317-.072-.553-.216-.708-.144-.156-.37-.234-.676-.234-.406 0-.704.11-.892.33-.19.218-.284.58-.284 1.086v2.036h-.588v-3.881h.478l.096.532h.028c.12-.192.29-.34.507-.445.217-.105.459-.157.725-.157.468 0 .82.112 1.056.338.236.225.354.585.354 1.081v2.532h-.588zm2.478-3.88V31.6c0 .316.072.552.216.708.144.156.37.234.676.234.406 0 .703-.111.891-.333.188-.222.282-.584.282-1.087v-2.04h.587v3.881h-.484l-.086-.52h-.031c-.12.19-.288.337-.501.439a1.684 1.684 0 0 1-.732.152c-.472 0-.825-.112-1.06-.337-.235-.224-.353-.582-.353-1.076v-2.539h.595zm5.779.456h-.988v3.424h-.588V29.54h-.694v-.266l.694-.212v-.216c0-.954.416-1.43 1.25-1.43.205 0 .446.04.722.123l-.152.472a1.94 1.94 0 0 0-.58-.11c-.223 0-.387.073-.493.221-.106.148-.16.384-.16.71v.251h.989v.457zm3.225 3.424-.117-.552h-.028c-.194.243-.387.408-.58.494a1.77 1.77 0 0 1-.72.13c-.385 0-.686-.1-.904-.299-.219-.198-.328-.48-.328-.846 0-.783.626-1.194 1.88-1.232l.659-.021v-.241c0-.304-.066-.53-.197-.674-.13-.145-.34-.218-.628-.218-.323 0-.69.099-1.098.297l-.18-.45c.19-.103.4-.185.628-.244a2.71 2.71 0 0 1 .685-.088c.463 0 .806.102 1.029.307.223.206.335.535.335.989v2.648h-.436zm-1.328-.414c.366 0 .654-.1.862-.301.21-.2.314-.482.314-.843v-.35l-.588.025c-.468.016-.805.088-1.011.217-.207.13-.31.329-.31.6 0 .213.064.374.193.485.129.111.308.167.54.167zm4.656.485c-.562 0-.997-.173-1.305-.519-.308-.346-.462-.835-.462-1.467 0-.65.156-1.151.469-1.505.313-.354.758-.532 1.337-.532.186 0 .373.02.56.06.186.04.332.088.438.142l-.18.5a2.781 2.781 0 0 0-.425-.13 1.903 1.903 0 0 0-.407-.05c-.789 0-1.183.501-1.183 1.507 0 .477.096.843.289 1.098.192.255.477.383.855.383.323 0 .655-.07.995-.21v.521c-.26.134-.587.202-.981.202m3.285-.485a1.934 1.934 0 0 0 .532-.071v.45c-.064.03-.158.056-.282.076-.124.02-.236.03-.335.03-.75 0-1.126-.395-1.126-1.186v-2.31h-.556v-.282l.556-.245.248-.828h.34v.9h1.126v.456h-1.126v2.284c0 .234.056.413.166.538a.578.578 0 0 0 .457.188m1.99-3.467v2.518c0 .316.072.552.216.708.144.156.37.234.676.234.406 0 .703-.111.891-.333.187-.222.281-.584.281-1.087v-2.04h.588v3.881h-.485l-.085-.52h-.032c-.12.19-.288.337-.5.439a1.684 1.684 0 0 1-.732.152c-.472 0-.826-.112-1.06-.337-.236-.224-.353-.582-.353-1.076v-2.539h.595zm5.8-.07c.171 0 .327.014.463.042l-.081.545a2.012 2.012 0 0 0-.425-.053c-.314 0-.583.128-.806.383-.223.255-.335.572-.335.952v2.082h-.587v-3.88h.485l.067.718h.028c.144-.253.318-.447.52-.584.204-.137.427-.206.67-.206m1.271-.98c0-.135.048-.233.143-.296a.633.633 0 0 1 .357-.094c.136 0 .253.032.352.095.098.065.148.163.148.295 0 .132-.05.23-.148.295a.624.624 0 0 1-.352.098.616.616 0 0 1-.357-.098c-.095-.064-.143-.163-.143-.295zm.071 4.932h.847v-3.88h-.847v3.88zm4.599 0v-2.51c0-.317-.072-.553-.216-.708-.144-.156-.37-.234-.676-.234-.406 0-.704.11-.893.33-.188.218-.283.58-.283 1.086v2.036h-.587v-3.881h.477l.096.532h.028c.12-.192.29-.34.506-.445.218-.105.46-.157.726-.157.468 0 .82.112 1.056.338.236.225.354.585.354 1.081v2.532h-.588zm5.102-3.88v.371l-.719.085a1.245 1.245 0 0 1 .255.775c0 .38-.13.684-.39.91-.26.227-.616.34-1.069.34a1.78 1.78 0 0 1-.325-.028c-.25.132-.376.3-.376.5 0 .106.044.184.131.235.088.05.238.076.45.076h.687c.42 0 .743.088.968.266.226.177.339.434.339.772 0 .429-.173.757-.518.982-.345.226-.847.338-1.508.338-.508 0-.899-.094-1.174-.283a.913.913 0 0 1-.413-.8c0-.236.076-.44.227-.613.151-.172.364-.289.637-.35a.617.617 0 0 1-.25-.209.556.556 0 0 1-.1-.33c0-.141.038-.265.113-.371.076-.106.195-.21.358-.309a1.05 1.05 0 0 1-.49-.42 1.24 1.24 0 0 1-.19-.68c0-.425.128-.753.383-.983.255-.23.616-.346 1.083-.346.203 0 .386.024.549.071h1.342zm-3.095 4.532c0 .21.089.37.266.478.177.109.43.163.76.163.494 0 .86-.074 1.097-.222.237-.147.356-.348.356-.6 0-.21-.065-.356-.195-.437-.13-.082-.374-.122-.733-.122h-.704c-.267 0-.475.063-.624.19-.148.128-.223.311-.223.55zm.319-3.29c0 .271.077.477.23.616.153.14.367.21.64.21.574 0 .861-.28.861-.836 0-.584-.29-.875-.87-.875-.277 0-.49.075-.638.223-.149.149-.223.37-.223.662zm3.235-1.328c0-.208.052-.402.156-.583a1.14 1.14 0 0 1 .428-.43c.18-.104.376-.156.585-.156a1.16 1.16 0 0 1 1.013.583c.104.181.157.377.157.586a1.157 1.157 0 0 1-.574 1.005c-.182.108-.38.162-.596.162-.214 0-.412-.053-.594-.16a1.156 1.156 0 0 1-.575-1.007zm.164 0c0 .179.045.347.135.503a.99.99 0 0 0 .37.368c.155.09.322.134.5.134a1.008 1.008 0 0 0 1.006-1.006.982.982 0 0 0-.135-.501 1.018 1.018 0 0 0-.366-.368.977.977 0 0 0-.505-.136 1.017 1.017 0 0 0-.87.501.977.977 0 0 0-.135.505zm1.48-.283a.38.38 0 0 1-.252.362l.37.614h-.262l-.321-.55h-.21v.55h-.23v-1.385h.406c.172 0 .298.034.378.1.08.068.12.171.12.309zm-.675.235h.168c.083 0 .15-.022.2-.065a.207.207 0 0 0 .075-.164c0-.077-.023-.133-.067-.167-.044-.034-.115-.05-.211-.05h-.165v.446z"/>
    </g>
</svg>
